<?xml version="1.0" encoding="utf-8"?>
<!-- Generator: Adobe Illustrator 16.0.0, SVG Export Plug-In . SVG Version: 6.00 Build 0)  -->
<!DOCTYPE svg PUBLIC "-//W3C//DTD SVG 1.1//EN" "http://www.w3.org/Graphics/SVG/1.1/DTD/svg11.dtd">
<svg version="1.1" id="Layer_1" xmlns="http://www.w3.org/2000/svg" xmlns:xlink="http://www.w3.org/1999/xlink" x="0px" y="0px"
	 width="2000px" height="2000px" viewBox="0 0 2000 2000" enable-background="new 0 0 2000 2000" xml:space="preserve">
<g>
	<path fill-rule="evenodd" clip-rule="evenodd" fill="#444D61" d="M88.033,1852.93c3.288-4.586,5.729-8.004,8.184-11.411
		c70.461-97.782,140.962-195.537,211.29-293.415c3.967-5.522,8.32-8.267,15.171-9.472c84.998-14.95,169.888-30.516,254.89-45.447
		c60.714-10.666,121.413-21.569,182.384-30.578c46.898-6.931,94.243-10.323,141.396-0.938c8.943,1.78,17.833,4.496,26.292,7.906
		c30.75,12.395,46.401,36.143,49.728,68.515c0.93,9.048,0.99,18.185,1.499,28.248c-35.893,0-70.75,0-106.099,0
		c0,25.17,0,49.414,0,74.596c35.044,0,69.912,0,105.462,0c0,69.632,0,138.337,0,207.897c-0.904-1.227-1.715-1.953-2.064-2.858
		c-21.577-55.996-63.974-86.386-121.223-98.277c-39.728-8.253-80.049-9.405-119.973-4.043
		c-66.759,8.967-133.348,19.409-199.766,30.668c-99.508,16.866-198.808,34.965-298.191,52.566
		c-46.868,8.302-93.723,16.677-140.588,24.995C94.205,1852.275,91.947,1852.447,88.033,1852.93z"/>
	<path fill-rule="evenodd" clip-rule="evenodd" fill="#444D61" d="M1945.642,1852.917c-43.145-7.452-84.363-14.58-125.584-21.689
		c-88.44-15.253-176.888-30.457-265.319-45.755c-60.751-10.51-121.428-21.45-182.232-31.63
		c-53.846-9.016-107.942-16.009-162.738-11.321c-43.445,3.717-84.173,14.859-116.979,45.863
		c-17.429,16.472-29.247,36.645-37.953,58.81c-0.712-0.103-1.422-0.205-2.133-0.308c1.066-10.68,1.618-21.438,3.284-32.024
		c7.39-46.962,29.975-86.907,58.321-124.022c41.438-54.254,90.442-101.555,138.368-149.832
		c21.035-21.188,42.454-41.998,63.169-63.492c5.278-5.479,10.182-6.81,17.298-5.518c45.984,8.352,92.023,16.4,138.051,24.531
		c80.188,14.166,160.394,28.238,240.53,42.695c4.491,0.811,9.768,3.784,12.401,7.406c72.562,99.805,144.829,199.823,217.139,299.812
		C1942.412,1848.03,1943.464,1849.689,1945.642,1852.917z"/>
	<path fill-rule="evenodd" clip-rule="evenodd" fill="#444D61" d="M622.547,1269.968c-4.128-4.971-8.781-9.598-12.295-14.969
		c-16.235-24.815-22.925-52.899-27.325-81.729c-11.136-72.976,11.023-137.767,49.091-198.499
		c34.388-54.858,78.236-101.837,123.608-147.571c96.861-97.63,193.857-195.133,289.972-293.496
		c24.206-24.775,45.865-52.138,67.665-79.142c24.635-30.514,39.992-65.429,44.905-104.622c0.225-1.789,0.849-3.527,2.999-5.28
		c0.229,2.305,0.651,4.61,0.652,6.917c0.041,36.181,0.199,72.364-0.02,108.545c-0.232,38.051-15.024,71.459-34.161,103.261
		c-29.237,48.586-67.137,90.162-106.892,130.097c-94.195,94.62-188.87,188.765-282.837,283.61
		c-34.009,34.327-64.609,71.651-88.733,113.799c-22.585,39.458-38.443,81.051-34.94,127.497c1.088,14.422,5.51,28.597,8.481,42.868
		c0.505,2.425,1.398,4.771,2.112,7.151C624.068,1268.927,623.308,1269.448,622.547,1269.968z"/>
	<path fill-rule="evenodd" clip-rule="evenodd" fill="#444D61" d="M568.686,1065.959c-2.799-10.335-6.455-19.979-7.95-29.951
		c-13.408-89.387,8.065-170.776,57.62-245.378c31.632-47.62,71.147-88.585,111.153-128.993
		c90.911-91.826,182.392-183.087,273.199-275.016c39.134-39.619,77.417-80.074,111.032-124.698
		c24.731-32.83,40.871-68.91,44.822-110.087c0.131-1.365,0.657-2.69,2.254-4.161c0.304,1.593,0.867,3.187,0.869,4.78
		c0.036,37.331,0.469,74.67-0.129,111.992c-0.602,37.641-15.614,70.773-34.715,102.24c-29.113,47.959-66.585,89.135-105.938,128.677
		C919.019,597.734,816.561,699.541,715.318,802.543c-27.692,28.172-52.818,59.038-77.501,89.963
		c-39.294,49.229-61.628,105.695-66.804,168.697c-0.093,1.138-0.28,2.269-0.471,3.395
		C570.515,1064.752,570.207,1064.858,568.686,1065.959z"/>
	<path fill-rule="evenodd" clip-rule="evenodd" fill="#444D61" d="M1160.502,544.244c0,44.167,1.513,88.403-0.505,132.478
		c-1.469,32.114-16.927,60.444-33.506,87.518c-31.271,51.068-71.878,94.377-114.018,136.4
		c-75.005,74.796-150.254,149.353-224.753,224.649c-38.846,39.261-68.827,84.4-83.384,138.519
		c-5.184,19.271-7.596,38.921-5.391,58.824c3.181,28.689,14.474,52.94,40.179,68.768c-0.222,0.826-0.443,1.65-0.665,2.475
		c-5.453-0.708-11.291-0.4-16.295-2.295c-31.288-11.847-51.18-35.396-63.158-65.558c-21.413-53.92-17.105-108.053,2.237-161.416
		c15.113-41.695,40.715-77.187,71.398-108.558c70.65-72.233,142.563-143.229,213.269-215.409
		c46.185-47.148,91.685-95,136.388-143.554c16.821-18.27,31.281-38.887,45.475-59.366c17.976-25.942,27.065-55.469,30.694-86.722
		c0.276-2.368,0.94-4.688,1.424-7.03C1160.097,544.059,1160.299,544.151,1160.502,544.244z"/>
	<path fill-rule="evenodd" clip-rule="evenodd" fill="#444D61" d="M1404.011,809.874c14.917-2.307,20.214,7.736,24.888,17.992
		c13.37,29.328,18.992,60.615,22.379,92.371c7.294,68.416-15.165,128.862-50.556,185.615
		c-34.101,54.681-77.88,101.316-122.7,147.148c-47.154,48.216-94.237,96.53-140.095,145.97
		c-27.767,29.938-51.97,63.061-66.366,101.791c-6.734,18.12-10.1,37.492-14.953,56.31c-0.625,2.424-1.014,4.911-2.967,7.346
		c-0.154-2.502-0.44-5.006-0.444-7.508c-0.03-30.718,0.998-61.478-0.269-92.142c-1.687-40.78,10.015-77.54,29.767-112.335
		c24.094-42.442,54.36-80.352,87.924-115.486c42.03-43.998,85.29-86.818,127.695-130.461
		c39.163-40.302,74.618-83.428,98.568-134.877c15.481-33.259,25.232-67.986,21.409-104.921c-1.69-16.335-7.121-32.292-11.011-48.382
		C1406.574,815.379,1405.104,812.639,1404.011,809.874z"/>
	<path fill-rule="evenodd" clip-rule="evenodd" fill="#444D61" d="M1287.754,688.53c39.588-4.268,60.444,5.879,77.259,41.667
		c34.124,72.627,30.348,145.151-4.881,216.328c-20.634,41.692-52.082,75.275-84.204,108.241
		c-44.247,45.416-88.899,90.467-132.096,136.869c-29.196,31.364-54.742,65.944-70.652,106.188
		c-7.314,18.502-11.082,38.405-16.446,57.677c-0.501,1.807-0.912,3.641-2.797,5.517c-0.252-1.96-0.724-3.922-0.727-5.882
		c-0.034-37.886-0.234-75.775,0.061-113.657c0.272-34.906,13.338-66,30.156-95.718c25.808-45.606,60.239-84.374,96.838-121.438
		c29.021-29.395,58.852-58.121,86.144-89.066c32.054-36.343,55.839-78.045,64.727-126.358c3.221-17.506,3.966-36.133,1.925-53.797
		C1329.445,723.828,1317.928,709.063,1287.754,688.53z"/>
	<path fill-rule="evenodd" clip-rule="evenodd" fill="#444D61" d="M1074.325,1563.785c13.195-20.686,25.542-41.975,39.75-61.938
		c35.611-50.043,79.937-92.282,123.128-135.551c50.47-50.556,101.682-100.462,146.295-156.507
		c33.75-42.397,61.402-87.945,71.882-142.063c2.774-14.333,4.29-28.906,6.477-43.354c0.649-4.298,1.61-8.548,2.426-12.82
		c1.085,0.016,2.169,0.03,3.255,0.046c1.134,5.674,2.875,11.304,3.297,17.031c1.978,26.873,5.457,53.809,4.973,80.66
		c-1.238,68.65-23.535,130.93-61.808,187.615c-29.198,43.243-64.549,81.298-101.144,118.211
		c-48.285,48.703-96.815,97.166-145.521,145.445c-3.195,3.169-8.769,5.434-13.288,5.524c-25.777,0.52-51.572,0.252-77.36,0.252
		C1075.898,1565.486,1075.112,1564.635,1074.325,1563.785z"/>
	<path fill-rule="evenodd" clip-rule="evenodd" fill="#444D61" d="M1053.548,1641.695c15.741,0,30.736,0,47.569,0
		c-24.344,35.234-40.273,72.568-47.569,113.572C1053.548,1717.673,1053.548,1680.076,1053.548,1641.695z"/>
</g>
</svg>
